<svg width="25" height="24" viewBox="0 0 25 24" fill="none" xmlns="http://www.w3.org/2000/svg">
<path d="M17.7457 6C22.5582 6 22.9957 13.875 22.9957 16.5C22.9957 19.125 22.5582 20 20.8082 20C19 20 17.3125 15.5 16 15.5H8.99574C7.68324 15.5 6 20 4.18324 20C2.43324 20 1.99574 19.125 1.99574 16.5C1.99574 13.875 2.43324 6 7.24574 6H17.7457ZM8 8.25H7.75C7.47386 8.25 7.25 8.47386 7.25 8.75L7.24974 10H6C5.75454 10 5.55039 10.1769 5.50805 10.4101L5.5 10.5V10.75C5.5 11.0261 5.72386 11.25 6 11.25H7.24974L7.25 12.5C7.25 12.7455 7.42687 12.9496 7.66012 12.9919L7.75 13H8C8.27614 13 8.5 12.7761 8.5 12.5L8.49974 11.25H9.75C9.99546 11.25 10.1996 11.0731 10.2419 10.8399L10.25 10.75V10.5C10.25 10.2239 10.0261 10 9.75 10H8.49974L8.5 8.75C8.5 8.50454 8.32312 8.30039 8.08987 8.25806L8 8.25ZM17.25 11.75H17C16.7239 11.75 16.5 11.9739 16.5 12.25V12.5C16.5 12.7761 16.7239 13 17 13H17.25C17.5261 13 17.75 12.7761 17.75 12.5V12.25C17.75 11.9739 17.5261 11.75 17.25 11.75ZM15.5 10H15.25C14.9739 10 14.75 10.2239 14.75 10.5V10.75C14.75 11.0261 14.9739 11.25 15.25 11.25H15.5C15.7761 11.25 16 11.0261 16 10.75V10.5C16 10.2239 15.7761 10 15.5 10ZM19 10H18.75C18.4739 10 18.25 10.2239 18.25 10.5V10.75C18.25 11.0261 18.4739 11.25 18.75 11.25H19C19.2761 11.25 19.5 11.0261 19.5 10.75V10.5C19.5 10.2239 19.2761 10 19 10ZM17.25 8.25H17C16.7239 8.25 16.5 8.47386 16.5 8.75V9C16.5 9.27614 16.7239 9.5 17 9.5H17.25C17.5261 9.5 17.75 9.27614 17.75 9V8.75C17.75 8.47386 17.5261 8.25 17.25 8.25Z" fill="#FEFEFE" fill-opacity="0.6"/>
</svg>
