<svg width="29" height="28" viewBox="0 0 29 28" fill="none" xmlns="http://www.w3.org/2000/svg">
<path d="M14.6667 2.33337C21.095 2.33337 26.3334 7.04671 26.3334 12.8334C26.3334 16.695 23.195 19.8334 19.3334 19.8334H17.2684C16.9417 19.8334 16.685 20.09 16.685 20.4167C16.685 20.5567 16.7434 20.685 16.8367 20.8017C17.315 21.35 17.5834 22.0384 17.5834 22.75C17.5834 24.36 16.2767 25.6667 14.6667 25.6667C8.23836 25.6667 3.00003 20.4284 3.00003 14C3.00003 7.57171 8.23836 2.33337 14.6667 2.33337ZM14.6617 4.33004C9.33387 4.33004 4.9967 8.66721 4.9967 13.995C4.9967 19.3229 9.33387 23.66 14.6617 23.66C15 23.66 15.2658 23.3943 15.2658 23.056C15.2658 22.8627 15.1691 22.7177 15.0966 22.6331C14.6013 22.0774 14.3355 21.3646 14.3355 20.6397C14.3355 18.9725 15.6886 17.6194 17.3558 17.6194H19.4942C22.1642 17.6194 24.3267 15.4569 24.3267 12.7869C24.3267 8.12355 19.9895 4.33004 14.6617 4.33004ZM8.25003 11.6667C9.21653 11.6667 10 12.4502 10 13.4167C10 14.3832 9.21653 15.1667 8.25003 15.1667C7.28353 15.1667 6.50003 14.3832 6.50003 13.4167C6.50003 12.4502 7.28353 11.6667 8.25003 11.6667ZM21.0834 11.6667C22.0499 11.6667 22.8334 12.4502 22.8334 13.4167C22.8334 14.3832 22.0499 15.1667 21.0834 15.1667C20.1169 15.1667 19.3334 14.3832 19.3334 13.4167C19.3334 12.4502 20.1169 11.6667 21.0834 11.6667ZM11.75 7.00004C12.7165 7.00004 13.5 7.78354 13.5 8.75004C13.5 9.71654 12.7165 10.5 11.75 10.5C10.7835 10.5 10 9.71654 10 8.75004C10 7.78354 10.7835 7.00004 11.75 7.00004ZM17.5834 7.00004C18.5499 7.00004 19.3334 7.78354 19.3334 8.75004C19.3334 9.71654 18.5499 10.5 17.5834 10.5C16.6169 10.5 15.8334 9.71654 15.8334 8.75004C15.8334 7.78354 16.6169 7.00004 17.5834 7.00004Z" fill="#74ACE6"/>
</svg>
