<svg width="20" height="20" viewBox="0 0 20 20" fill="none" xmlns="http://www.w3.org/2000/svg">
<path d="M10 18.1053C14.4764 18.1053 18.1053 14.4764 18.1053 10C18.1053 5.52359 14.4764 1.89474 10 1.89474C5.52359 1.89474 1.89474 5.52359 1.89474 10C1.89474 14.4764 5.52359 18.1053 10 18.1053ZM10 20C4.47715 20 0 15.5228 0 10C0 4.47715 4.47715 0 10 0C15.5228 0 20 4.47715 20 10C20 15.5228 15.5228 20 10 20ZM10 7.62772C9.27331 7.62772 8.68421 7.03863 8.68421 6.31193C8.68421 5.58524 9.27331 4.99615 10 4.99615C10.7267 4.99615 11.3158 5.58524 11.3158 6.31193C11.3158 7.03863 10.7267 7.62772 10 7.62772ZM9.05263 10.4499C9.05263 9.90861 9.47678 9.46983 10 9.46983C10.5232 9.46983 10.9474 9.90861 10.9474 10.4499V14.2793C10.9474 14.8205 10.5232 15.2593 10 15.2593C9.47678 15.2593 9.05263 14.8205 9.05263 14.2793V10.4499Z" fill="#74ACE6"/>
</svg>
