<svg width="20" height="20" viewBox="0 0 20 20" fill="none" xmlns="http://www.w3.org/2000/svg">
<path fill-rule="evenodd" clip-rule="evenodd" d="M12.3696 7.81934L10.0021 2.23203L7.63348 7.81934L2.14055 8.35863L6.50148 12.0669L4.98969 17.7082L10.0022 14.0856L15.0147 17.7082L13.5029 12.0669L17.8638 8.35866L12.3696 7.81934ZM18.3443 8.42219C18.3443 8.4222 18.3439 8.42197 18.3429 8.42144ZM15.5363 12.7007L19.278 9.51889C20.5622 8.42691 20.0522 6.76482 18.3891 6.60158L13.6097 6.13242L11.5054 1.16628C10.8466 -0.388345 9.15815 -0.389124 8.49885 1.16612L6.39354 6.13242L1.61499 6.60158C-0.0551738 6.76556 -0.563195 8.42232 0.726365 9.51889L4.46813 12.7007L3.07906 17.884C2.62282 19.5865 4.04389 20.6126 5.4557 19.5923L10.0022 16.3065L14.5487 19.5923C15.9662 20.6167 17.3815 19.5863 16.9253 17.884L15.5363 12.7007Z" fill="#74ACE6"/>
</svg>
