<svg width="21" height="20" viewBox="0 0 21 20" fill="none" xmlns="http://www.w3.org/2000/svg">
<path d="M11.75 0.833333C11.9752 1.58417 12.1329 2.33501 13.3809 3.05537C14.7786 3.43443 15.4621 3.05818 16.0979 2.6343C16.7608 2.19237 16.9576 2.32011 17.2224 2.58057L17.8657 3.22356C18.1603 3.51819 18.2782 3.63605 17.8657 4.40207C17.4939 5.09245 17.0743 5.73497 17.448 7.12764C18.1684 8.383 18.9175 8.60017 19.6667 8.75C20.4479 8.90626 20.4967 9.13574 20.4998 9.50714L20.5 10.4167C20.5 10.8333 20.5 11 19.6667 11.25C18.9158 11.4752 18.165 11.6329 17.4446 12.8809C17.0656 14.2786 17.4418 14.9621 17.8657 15.5979C18.3076 16.2608 18.1799 16.4576 17.9194 16.7224L17.2764 17.3657C16.9818 17.6603 16.864 17.7782 16.0979 17.3657C15.4076 16.9939 14.765 16.5743 13.3724 16.948C12.117 17.6684 11.8998 18.4175 11.75 19.1667C11.5937 19.9479 11.3643 19.9967 10.9929 19.9998L10.2388 20C10.1939 20 10.1429 20 10.0833 20C9.66667 20 9.49999 20 9.25 19.1667C9.02476 18.4158 8.86715 17.665 7.61907 16.9446C6.22138 16.5656 5.53791 16.9418 4.90207 17.3657C4.23915 17.8076 4.04236 17.6799 3.77758 17.4194L3.1343 16.7764C2.83968 16.4818 2.72182 16.364 3.1343 15.5979C3.50606 14.9076 3.92566 14.265 3.55199 12.8724C2.83159 11.617 2.08246 11.3998 1.33333 11.25C0.552083 11.0937 0.503255 10.8643 0.500203 10.4929L0.5 9.58333C0.5 9.16667 0.5 8.99999 1.33333 8.75C2.08417 8.52476 2.83501 8.36715 3.55537 7.11907C3.93443 5.72138 3.55818 5.03791 3.1343 4.40207C2.69237 3.73915 2.82011 3.54236 3.08057 3.27758L3.72356 2.6343C4.01819 2.33968 4.13605 2.22182 4.90207 2.6343C5.59245 3.00606 6.23497 3.42566 7.62764 3.05199C8.883 2.33159 9.10017 1.58246 9.25 0.833333C9.40626 0.0520833 9.63574 0.00325513 10.0071 0.000203371L10.9167 0C11.3333 0 11.5 -5.96046e-08 11.75 0.833333ZM10.5 5.25C7.87665 5.25 5.75 7.37665 5.75 10C5.75 12.6234 7.87665 14.75 10.5 14.75C13.1234 14.75 15.25 12.6234 15.25 10C15.25 7.37665 13.1234 5.25 10.5 5.25Z" fill="#74ACE6"/>
</svg>
