<svg width="21" height="18" viewBox="0 0 21 18" fill="none" xmlns="http://www.w3.org/2000/svg">
<path d="M9.99645 0.725125C8.8807 0.803855 8 1.73394 8 2.86973L7.999 4.9868L7.97857 4.9917C3.44628 5.93068 0.0999985 9.94684 0.0999985 14.6852C0.0999985 15.0294 0.117606 15.3725 0.152432 15.7128C0.235455 16.524 1.2681 16.8154 1.76302 16.1674L1.94982 15.9309C3.40914 14.1445 5.48684 12.9726 7.78551 12.6656L7.999 12.6398L8 15.1341C8 15.6147 8.1612 16.0817 8.45783 16.4602C9.19032 17.3947 10.5417 17.5585 11.4763 16.826L19.3 10.694C19.4362 10.5872 19.5591 10.4643 19.6658 10.3281C20.3983 9.39353 20.2345 8.04212 19.3 7.30963L11.4763 1.17756C11.0978 0.880924 10.6309 0.719727 10.15 0.719727L9.99645 0.725125ZM10.15 2.51973C10.2283 2.51973 10.3043 2.54597 10.3659 2.59426L18.1896 8.72633C18.3417 8.84557 18.3684 9.06557 18.2491 9.21771C18.2318 9.23989 18.2118 9.25989 18.1896 9.27727L10.3659 15.4093C10.2138 15.5286 9.99377 15.5019 9.87453 15.3498C9.82624 15.2882 9.8 15.2122 9.8 15.1339L9.799 11.6865C9.79885 11.1838 9.38688 10.7787 8.8842 10.7869L8.65106 10.7908L8.30884 10.8073C6.03474 10.9524 3.9121 11.7944 2.1903 13.1731L2.016 13.3168L2.0398 13.1814C2.68262 9.76599 5.47473 7.07608 9.00816 6.64518C9.45964 6.59012 9.79908 6.20687 9.79921 5.75205L9.8 2.86997C9.8 2.67643 9.9567 2.51973 10.15 2.51973Z" fill="#74ACE6"/>
</svg>
