<svg width="25" height="24" viewBox="0 0 25 24" fill="none" xmlns="http://www.w3.org/2000/svg">
<path d="M12.5 3C7.53 3 3.5 7.03 3.5 12C3.5 16.97 7.53 21 12.5 21C13.33 21 14 20.33 14 19.5C14 19.11 13.85 18.76 13.61 18.49C13.38 18.23 13.23 17.88 13.23 17.5C13.23 16.67 13.9 16 14.73 16H16.5C19.26 16 21.5 13.76 21.5 11C21.5 6.58 17.47 3 12.5 3ZM7 12C6.17 12 5.5 11.33 5.5 10.5C5.5 9.67 6.17 9 7 9C7.83 9 8.5 9.67 8.5 10.5C8.5 11.33 7.83 12 7 12ZM10 8C9.17 8 8.5 7.33 8.5 6.5C8.5 5.67 9.17 5 10 5C10.83 5 11.5 5.67 11.5 6.5C11.5 7.33 10.83 8 10 8ZM15 8C14.17 8 13.5 7.33 13.5 6.5C13.5 5.67 14.17 5 15 5C15.83 5 16.5 5.67 16.5 6.5C16.5 7.33 15.83 8 15 8ZM18 12C17.17 12 16.5 11.33 16.5 10.5C16.5 9.67 17.17 9 18 9C18.83 9 19.5 9.67 19.5 10.5C19.5 11.33 18.83 12 18 12Z" fill="#FEFEFE" fill-opacity="0.6"/>
</svg>
