<svg width="20" height="20" viewBox="0 0 20 20" fill="none" xmlns="http://www.w3.org/2000/svg">
<path d="M2.28572 16.0503V13.2808C2.28572 12.3619 3.03065 11.6169 3.94958 11.6169C4.86851 11.6169 5.61345 12.3619 5.61345 13.2808V16.0503C5.61345 16.9692 4.86851 17.7141 3.94958 17.7141C3.03065 17.7141 2.28572 16.9692 2.28572 16.0503ZM2.28572 14.6549V10.3401C1.2621 10.9206 0.57143 12.02 0.57143 13.2808V16.0503C0.57143 17.916 2.08388 19.4284 3.94958 19.4284C5.81528 19.4284 7.32773 17.916 7.32773 16.0503V13.2808C7.32773 11.4151 5.81528 9.90263 3.94958 9.90263C3.34465 9.90263 2.77686 10.0616 2.28572 10.3401V9.99986C2.28572 5.73938 5.73952 2.28557 10 2.28557C14.2605 2.28557 17.7143 5.73938 17.7143 9.99986V10.3401C17.2231 10.0616 16.6554 9.90263 16.0504 9.90263C14.1847 9.90263 12.6723 11.4151 12.6723 13.2808V16.0503C12.6723 17.916 14.1847 19.4284 16.0504 19.4284C17.9161 19.4284 19.4286 17.916 19.4286 16.0503V13.2808C19.4286 12.02 18.7379 10.9206 17.7143 10.3401V14.5402C17.7143 15.0136 18.098 15.3974 18.5714 15.3974C19.0448 15.3974 19.4286 15.0136 19.4286 14.5402V9.99986C19.4286 4.7926 15.2073 0.571289 10 0.571289C4.79275 0.571289 0.57143 4.7926 0.57143 9.99986V14.6549C0.57143 15.1282 0.955186 15.512 1.42857 15.512C1.90196 15.512 2.28572 15.1282 2.28572 14.6549ZM17.7143 13.2808V16.0503C17.7143 16.9692 16.9693 17.7141 16.0504 17.7141C15.1315 17.7141 14.3866 16.9692 14.3866 16.0503V13.2808C14.3866 12.3619 15.1315 11.6169 16.0504 11.6169C16.9693 11.6169 17.7143 12.3619 17.7143 13.2808Z" fill="#74ACE6"/>
</svg>
