<svg width="22" height="22" viewBox="0 0 22 22" fill="none" xmlns="http://www.w3.org/2000/svg">
<path d="M11 0C17.0751 0 22 4.92487 22 11C22 17.0751 17.0751 22 11 22C4.92487 22 0 17.0751 0 11C0 4.92487 4.92487 0 11 0ZM11 1.8C5.91898 1.8 1.8 5.91898 1.8 11C1.8 16.081 5.91898 20.2 11 20.2C16.081 20.2 20.2 16.081 20.2 11C20.2 5.91898 16.081 1.8 11 1.8ZM10.8023 15.5743C11.4094 15.5743 11.9016 16.0665 11.9016 16.6736V16.7007C11.9016 17.3078 11.4094 17.8 10.8023 17.8C10.1952 17.8 9.70304 17.3078 9.70304 16.7007V16.6736C9.70304 16.0665 10.1952 15.5743 10.8023 15.5743ZM10.739 4.8C12.7065 4.8 14.3 6.42981 14.3 8.44202C14.3 9.24327 13.9795 9.97167 13.4721 10.4907L12.6708 11.3283C12.1943 11.8224 11.8507 12.2511 11.7057 12.9997C11.6923 13.0687 11.6826 13.172 11.6765 13.3096C11.6556 13.7841 11.2649 14.158 10.79 14.158C10.2931 14.158 9.89033 13.7552 9.89033 13.2584L9.89036 13.2562C9.89098 13.0023 9.89876 12.8361 9.91367 12.7575C10.0514 12.0319 10.4007 11.3808 10.8903 10.8731L11.9943 9.72584C12.3102 9.40406 12.5195 8.9428 12.5195 8.44202C12.5195 7.44047 11.7183 6.62101 10.739 6.62101C10.1167 6.62101 9.56638 6.95188 9.24779 7.45009C9.18713 7.54495 9.11141 7.69404 9.02065 7.89737C8.82546 8.33463 8.32851 8.55024 7.87585 8.39407C7.42804 8.23957 7.19027 7.75131 7.34477 7.3035C7.34958 7.28957 7.35475 7.27576 7.36025 7.26208C7.42491 7.10195 7.48697 6.96067 7.54642 6.83824C8.15791 5.57896 9.30925 4.8 10.739 4.8Z" fill="#74ACE6"/>
</svg>
