<svg width="29" height="28" viewBox="0 0 29 28" fill="none" xmlns="http://www.w3.org/2000/svg">
<path d="M24.3287 19.1782C24.1646 22.3094 19.6844 24.5 14.3333 24.5C8.88136 24.5 4.33334 22.226 4.33334 19V9L4.338 8.82177C4.5021 5.69056 8.98232 3.5 14.3333 3.5C19.7853 3.5 24.3333 5.77401 24.3333 9V19L24.3287 19.1782ZM22.3344 12.3655C20.498 13.6958 17.5755 14.5 14.3333 14.5C11.0918 14.5 8.16978 13.6961 6.33326 12.3662L6.33334 14C6.33334 15.7446 9.8442 17.5 14.3333 17.5C18.8225 17.5 22.3333 15.7446 22.3333 14L22.3344 12.3655ZM14.3333 5.5C9.8442 5.5 6.33334 7.25543 6.33334 9C6.33334 10.7446 9.8442 12.5 14.3333 12.5C18.8225 12.5 22.3333 10.7446 22.3333 9C22.3333 7.25543 18.8225 5.5 14.3333 5.5ZM22.3344 17.3655C20.498 18.6958 17.5755 19.5 14.3333 19.5C11.0918 19.5 8.16978 18.6961 6.33326 17.3662L6.33334 19L6.33852 19.1163C6.48987 20.8217 9.94396 22.5 14.3333 22.5C18.8225 22.5 22.3333 20.7446 22.3333 19L22.3344 17.3655Z" fill="#74ACE6"/>
</svg>
